<?xml version="1.0" encoding="iso-8859-1"?>
<!-- Generator: Adobe Illustrator 16.0.0, SVG Export Plug-In . SVG Version: 6.00 Build 0)  -->
<!DOCTYPE svg PUBLIC "-//W3C//DTD SVG 1.1//EN" "http://www.w3.org/Graphics/SVG/1.1/DTD/svg11.dtd">
<svg version="1.1" id="Capa_1" xmlns="http://www.w3.org/2000/svg" xmlns:xlink="http://www.w3.org/1999/xlink" x="0px" y="0px"
	 width="527.926px" height="527.926px" viewBox="0 0 527.926 527.926" style="enable-background:new 0 0 527.926 527.926;"
	 xml:space="preserve">
<g>
	<path d="M45.642,404.852h380.682c25.189,0,45.623-20.434,45.623-45.613v-19.965h33.154c12.594,0,22.824-10.232,22.824-22.846
		V210.619c0-12.575-10.221-22.797-22.824-22.797h-33.154v-19.106c0-25.207-20.434-45.642-45.623-45.642H45.642
		C20.416,123.074,0,143.519,0,168.716v190.522C0,384.418,20.426,404.852,45.642,404.852z M45.642,168.716h380.682v190.522H45.642
		V168.716z"/>
	<path d="M382.854,202.931H90.395c-5.288,0-9.562,4.274-9.562,9.562v102.95c0,5.277,4.274,9.562,9.562,9.562h292.459
		c5.289,0,9.562-4.285,9.562-9.562v-102.95C392.416,207.214,388.143,202.931,382.854,202.931z"/>
</g>
<g>
</g>
<g>
</g>
<g>
</g>
<g>
</g>
<g>
</g>
<g>
</g>
<g>
</g>
<g>
</g>
<g>
</g>
<g>
</g>
<g>
</g>
<g>
</g>
<g>
</g>
<g>
</g>
<g>
</g>
</svg>
