<?xml version="1.0" encoding="iso-8859-1"?>
<!-- Generator: Adobe Illustrator 19.0.0, SVG Export Plug-In . SVG Version: 6.00 Build 0)  -->
<svg version="1.1" id="Capa_1" xmlns="http://www.w3.org/2000/svg" xmlns:xlink="http://www.w3.org/1999/xlink" x="0px" y="0px"
	 viewBox="0 0 490.667 490.667" style="enable-background:new 0 0 490.667 490.667;" xml:space="preserve">
<g>
	<g>
		<path d="M128,0H64C46.357,0,32,14.357,32,32v42.667c0,17.643,14.357,32,32,32h64c17.643,0,32-14.357,32-32V32
			C160,14.357,145.643,0,128,0z"/>
	</g>
</g>
<g>
	<g>
		<path d="M277.333,0h-64c-17.643,0-32,14.357-32,32v42.667c0,17.643,14.357,32,32,32h64c17.643,0,32-14.357,32-32V32
			C309.333,14.357,294.976,0,277.333,0z"/>
	</g>
</g>
<g>
	<g>
		<path d="M426.667,0h-64c-17.643,0-32,14.357-32,32v42.667c0,17.643,14.357,32,32,32h64c17.643,0,32-14.357,32-32V32
			C458.667,14.357,444.309,0,426.667,0z"/>
	</g>
</g>
<g>
	<g>
		<path d="M128,128H64c-17.643,0-32,14.357-32,32v42.667c0,17.643,14.357,32,32,32h64c17.643,0,32-14.357,32-32V160
			C160,142.357,145.643,128,128,128z"/>
	</g>
</g>
<g>
	<g>
		<path d="M277.333,128h-64c-17.643,0-32,14.357-32,32v42.667c0,17.643,14.357,32,32,32h64c17.643,0,32-14.357,32-32V160
			C309.333,142.357,294.976,128,277.333,128z"/>
	</g>
</g>
<g>
	<g>
		<path d="M426.667,128h-64c-17.643,0-32,14.357-32,32v42.667c0,17.643,14.357,32,32,32h64c17.643,0,32-14.357,32-32V160
			C458.667,142.357,444.309,128,426.667,128z"/>
	</g>
</g>
<g>
	<g>
		<path d="M128,256H64c-17.643,0-32,14.357-32,32v42.667c0,17.643,14.357,32,32,32h64c17.643,0,32-14.357,32-32V288
			C160,270.357,145.643,256,128,256z"/>
	</g>
</g>
<g>
	<g>
		<path d="M277.333,256h-64c-17.643,0-32,14.357-32,32v42.667c0,17.643,14.357,32,32,32h64c17.643,0,32-14.357,32-32V288
			C309.333,270.357,294.976,256,277.333,256z"/>
	</g>
</g>
<g>
	<g>
		<path d="M426.667,256h-64c-17.643,0-32,14.357-32,32v42.667c0,17.643,14.357,32,32,32h64c17.643,0,32-14.357,32-32V288
			C458.667,270.357,444.309,256,426.667,256z"/>
	</g>
</g>
<g>
	<g>
		<path d="M277.333,384h-64c-17.643,0-32,14.357-32,32v42.667c0,17.643,14.357,32,32,32h64c17.643,0,32-14.357,32-32V416
			C309.333,398.357,294.976,384,277.333,384z"/>
	</g>
</g>
<g>
</g>
<g>
</g>
<g>
</g>
<g>
</g>
<g>
</g>
<g>
</g>
<g>
</g>
<g>
</g>
<g>
</g>
<g>
</g>
<g>
</g>
<g>
</g>
<g>
</g>
<g>
</g>
<g>
</g>
</svg>
