<?xml version="1.0" encoding="iso-8859-1"?>
<!-- Generator: Adobe Illustrator 16.0.0, SVG Export Plug-In . SVG Version: 6.00 Build 0)  -->
<!DOCTYPE svg PUBLIC "-//W3C//DTD SVG 1.1//EN" "http://www.w3.org/Graphics/SVG/1.1/DTD/svg11.dtd">
<svg version="1.1" id="Capa_1" xmlns="http://www.w3.org/2000/svg" xmlns:xlink="http://www.w3.org/1999/xlink" x="0px" y="0px"
	 width="28.334px" height="28.334px" viewBox="0 0 28.334 28.334" style="enable-background:new 0 0 28.334 28.334;"
	 xml:space="preserve">
<g>
	<path d="M28.041,9.242l-8.949-8.949C18.904,0.105,18.65,0,18.385,0H16H4.334H1C0.448,0,0,0.447,0,1v26.334c0,0.553,0.448,1,1,1h5.5
		h15.334h5.5c0.553,0,1-0.447,1-1V9.949C28.334,9.684,28.229,9.43,28.041,9.242z M10.5,2H15v5.668h-4.5V2z M7.5,26.334v-4h13.334v4
		H7.5z M26.334,26.334h-3.5v-5c0-0.553-0.447-1-1-1H6.5c-0.552,0-1,0.447-1,1v5H2V2h1.334v6.668c0,0.553,0.448,1,1,1H16
		c0.552,0,1-0.447,1-1V2h0.971l8.363,8.363V26.334z"/>
</g>
<g>
</g>
<g>
</g>
<g>
</g>
<g>
</g>
<g>
</g>
<g>
</g>
<g>
</g>
<g>
</g>
<g>
</g>
<g>
</g>
<g>
</g>
<g>
</g>
<g>
</g>
<g>
</g>
<g>
</g>
</svg>
